# Blender v3.0.1 OBJ File: 'ship.blend'
# www.blender.org
mtllib ship.mtl
o Ship_Plane
v -1.000000 0.000000 1.000000
v 1.000000 0.000000 1.000000
v -1.000000 0.000000 -3.000000
v 1.000000 0.000000 -3.000000
v -0.500000 0.500000 0.500000
v -1.000000 0.000000 1.000000
v 1.000000 0.000000 1.000000
v -1.000000 0.000000 -3.999999
v 1.000000 0.000000 -3.999999
v 0.000000 0.000000 2.500000
v -1.000000 0.500000 1.000000
v 1.000000 0.500000 1.000000
v -1.000000 0.500000 -3.999999
v 1.000000 0.500000 -3.999999
v 0.000000 0.500000 2.500000
v -0.500000 0.500000 -3.500000
v 0.500000 0.500000 -3.500000
v 0.500000 0.500000 0.500000
v -0.500000 0.500000 0.500000
v 0.500000 0.500000 0.500000
v -0.500000 0.500000 -3.500000
v 0.500000 0.500000 -3.500000
v -0.500000 0.500000 0.500000
v 0.500000 0.500000 0.500000
v -0.500000 0.500000 -3.500000
v 0.500000 0.500000 -3.500000
v -0.500000 0.500000 0.500000
v 0.500000 0.500000 0.500000
v -0.500000 0.700000 0.500000
v -0.500000 0.700000 -3.500000
v 0.500000 0.700000 -3.500000
v 0.500000 0.700000 0.500000
v -0.500000 0.700000 -3.500000
v 0.500000 0.700000 -3.500000
v -0.500000 0.700000 0.500000
v 0.500000 0.700000 0.500000
v -1.000000 0.700000 0.500000
v -1.000000 0.700000 0.300000
v 1.000000 0.700000 0.500000
v 1.000000 0.700000 0.300000
v -1.000000 0.900000 0.300000
v -1.000000 0.900000 0.500000
v 1.000000 0.900000 0.300000
v 1.000000 0.900000 0.500000
v -0.500000 0.900000 0.500000
v 0.500000 0.900000 0.500000
v 0.500000 0.900000 0.300000
v -0.500000 0.900000 0.300000
v -0.500000 1.000000 0.500000
v 0.500000 1.000000 0.500000
v 0.500000 1.000000 0.300000
v -0.500000 1.000000 0.300000
v -0.500000 0.700000 0.300000
v 0.500000 0.700000 0.300000
vt 0.514880 0.522453
vt 0.508611 0.783655
vt 0.090708 0.784852
vt 0.060512 0.523754
vt 0.078742 0.523663
vt 0.496645 0.522466
vt 0.830314 0.520217
vt 0.527670 0.520217
vt 0.527670 0.518896
vt 0.830314 0.518896
vt 0.043912 0.999092
vt 0.170176 0.805196
vt 0.128067 0.977746
vt 0.527415 0.999873
vt 0.267641 0.995614
vt 0.262918 0.988508
vt 0.427121 0.976446
vt 0.830314 0.523112
vt 0.527670 0.523112
vt 0.527670 0.521792
vt 0.830314 0.521792
vt 0.000127 0.001642
vt 0.048546 0.262565
vt 0.502913 0.261264
vt 0.527415 0.000127
vt 0.431076 0.809518
vt 0.365888 0.825627
vt 0.237103 0.824163
vt 0.527670 0.517576
vt 0.830314 0.517576
vt 0.527670 0.520471
vt 0.830314 0.520471
vt 0.527670 0.508516
vt 0.527670 0.337500
vt 0.561873 0.337500
vt 0.561873 0.508516
vt 0.596331 0.337500
vt 0.596331 0.508516
vt 0.562128 0.508516
vt 0.562128 0.337500
vt 0.698686 0.517321
vt 0.527670 0.517321
vt 0.527670 0.508770
vt 0.698686 0.508770
vt 0.527670 0.171143
vt 0.527670 0.162592
vt 0.698686 0.162592
vt 0.698686 0.171143
vt 0.527670 0.000127
vt 0.698686 0.000127
vt 0.527670 0.219565
vt 0.550348 0.171398
vt 0.627417 0.173666
vt 0.604738 0.221833
vt 0.575824 0.277083
vt 0.570585 0.262859
vt 0.592856 0.262172
vt 0.601333 0.276301
vt 0.580074 0.232762
vt 0.553850 0.233304
vt 0.627417 0.289730
vt 0.551393 0.287907
vt 0.586669 0.260180
vt 0.579358 0.249362
vt 0.584918 0.246436
vt 0.563067 0.248336
vt 0.568350 0.249578
vt 0.576095 0.260880
vt 0.609186 0.337245
vt 0.533162 0.335422
vt 0.359072 0.958598
vt 0.216990 0.957938
vn 0.0000 -1.0000 0.0000
vn 0.0000 0.0000 1.0000
vn 1.0000 0.0000 0.0000
vn -0.8321 0.0000 0.5547
vn 0.0000 1.0000 0.0000
vn -1.0000 0.0000 0.0000
vn 0.8321 0.0000 0.5547
vn 0.0000 0.0000 -1.0000
usemtl Material.001
s off
f 6/1/1 8/2/1 9/3/1 7/4/1 2/5/1 1/6/1
f 19/7/2 20/8/2 24/9/2 23/10/2
f 7/11/3 9/3/3 14/12/3 12/13/3
f 6/14/4 10/15/4 15/16/4 11/17/4
f 16/18/2 17/19/2 22/20/2 21/21/2
f 2/5/2 7/4/2 9/22/2 4/23/2
f 3/24/2 8/25/2 6/1/2 1/6/2
f 10/15/1 6/14/1 7/11/1
f 14/12/5 13/26/5 25/27/5 26/28/5
f 12/13/5 11/17/5 15/16/5
f 8/2/6 6/14/6 11/17/6 13/26/6
f 10/15/7 7/11/7 12/13/7 15/16/7
f 9/3/8 8/2/8 13/26/8 14/12/8
f 23/10/2 24/9/2 28/29/2 27/30/2
f 21/21/2 22/20/2 26/31/2 25/32/2
f 16/33/6 5/34/6 29/35/6 30/36/6
f 18/37/3 17/38/3 31/39/3 32/40/3
f 27/41/2 28/42/2 36/43/2 35/44/2
f 25/45/8 33/46/8 34/47/8 26/48/8
f 33/46/5 53/49/5 54/50/5 34/47/5
f 38/51/1 53/52/1 35/53/1 37/54/1
f 43/55/5 47/56/5 46/57/5 44/58/5
f 37/54/6 42/59/6 41/60/6 38/51/6
f 39/61/2 44/58/2 42/59/2 37/54/2
f 38/51/8 41/60/8 43/55/8 40/62/8
f 40/62/3 43/55/3 44/58/3 39/61/3
f 46/57/2 50/63/2 49/64/2 45/65/2
f 48/66/6 45/65/6 49/64/6 52/67/6
f 47/56/3 51/68/3 50/63/3 46/57/3
f 48/66/8 52/67/8 51/68/8 47/56/8
f 49/64/5 50/63/5 51/68/5 52/67/5
f 36/69/1 54/70/1 40/62/1 39/61/1
f 41/60/5 42/59/5 45/65/5 48/66/5
f 13/26/5 11/17/5 27/71/5 25/27/5
f 27/71/5 11/17/5 12/13/5 28/72/5
f 12/13/5 14/12/5 26/28/5 28/72/5