{
  "accessors": [
    {
      "bufferView": 2,
      "componentType": 5126,
      "count": 25553,
      "max": [
        2.861812114715576,
        22.32952880859375,
        14.402203559875488
      ],
      "min": [
        -2.8722031116485596,
        -8.165746688842773,
        0.36048299074172974
      ],
      "type": "VEC3"
    },
    {
      "bufferView": 2,
      "byteOffset": 306636,
      "componentType": 5126,
      "count": 25553,
      "max": [
        1.0,
        1.0,
        1.0
      ],
      "min": [
        -1.0,
        -1.0,
        -1.0
      ],
      "type": "VEC3"
    },
    {
      "bufferView": 3,
      "componentType": 5126,
      "count": 25553,
      "max": [
        1.0,
        1.0,
        1.0,
        1.0
      ],
      "min": [
        -1.0,
        -1.0,
        -1.0,
        -1.0
      ],
      "type": "VEC4"
    },
    {
      "bufferView": 1,
      "componentType": 5126,
      "count": 25553,
      "max": [
        1.279600977897644,
        1.3109990358352661
      ],
      "min": [
        -0.4123930037021637,
        -0.2216159999370575
      ],
      "type": "VEC2"
    },
    {
      "bufferView": 0,
      "componentType": 5125,
      "count": 44604,
      "type": "SCALAR"
    },
    {
      "bufferView": 2,
      "byteOffset": 613272,
      "componentType": 5126,
      "count": 53568,
      "max": [
        2.8425350189208984,
        21.319046020507813,
        13.410810470581055
      ],
      "min": [
        -2.852926015853882,
        -7.155264854431152,
        0.36048299074172974
      ],
      "type": "VEC3"
    },
    {
      "bufferView": 2,
      "byteOffset": 1256088,
      "componentType": 5126,
      "count": 53568,
      "max": [
        0.9808031320571899,
        0.665747344493866,
        0.9808031320571899
      ],
      "min": [
        -0.9808031320571899,
        -0.665747344493866,
        -0.7071068286895752
      ],
      "type": "VEC3"
    },
    {
      "bufferView": 3,
      "byteOffset": 408848,
      "componentType": 5126,
      "count": 53568,
      "max": [
        0.9893583655357361,
        1.0,
        0.7071068286895752,
        1.0
      ],
      "min": [
        -0.9893583655357361,
        -1.0,
        -0.7071068286895752,
        -1.0
      ],
      "type": "VEC4"
    },
    {
      "bufferView": 1,
      "byteOffset": 204424,
      "componentType": 5126,
      "count": 53568,
      "max": [
        0.9891480207443237,
        0.9888250231742859
      ],
      "min": [
        -0.022224999964237213,
        -0.022547999396920204
      ],
      "type": "VEC2"
    },
    {
      "bufferView": 0,
      "byteOffset": 178416,
      "componentType": 5125,
      "count": 82944,
      "type": "SCALAR"
    },
    {
      "bufferView": 2,
      "byteOffset": 1898904,
      "componentType": 5126,
      "count": 36,
      "max": [
        5.437950134277344,
        24.129959106445313,
        0.06139799952507019
      ],
      "min": [
        -5.448339939117432,
        -8.001433372497559,
        -0.08671800047159195
      ],
      "type": "VEC3"
    },
    {
      "bufferView": 2,
      "byteOffset": 1899336,
      "componentType": 5126,
      "count": 36,
      "max": [
        1.0,
        -0.0,
        1.0
      ],
      "min": [
        -1.0,
        -0.0,
        0.0
      ],
      "type": "VEC3"
    },
    {
      "bufferView": 3,
      "byteOffset": 1265936,
      "componentType": 5126,
      "count": 36,
      "max": [
        1.0,
        1.0,
        0.755197286605835,
        1.0
      ],
      "min": [
        0.0,
        -1.0,
        -0.755197286605835,
        1.0
      ],
      "type": "VEC4"
    },
    {
      "bufferView": 1,
      "byteOffset": 632968,
      "componentType": 5126,
      "count": 36,
      "max": [
        1.0,
        1.0
      ],
      "min": [
        0.0,
        0.0
      ],
      "type": "VEC2"
    },
    {
      "bufferView": 0,
      "byteOffset": 510192,
      "componentType": 5125,
      "count": 54,
      "type": "SCALAR"
    },
    {
      "bufferView": 2,
      "byteOffset": 1899768,
      "componentType": 5126,
      "count": 65532,
      "max": [
        2.012726068496704,
        21.174571990966797,
        14.064322471618652
      ],
      "min": [
        -2.023116111755371,
        -7.010790824890137,
        0.14243100583553314
      ],
      "type": "VEC3"
    },
    {
      "bufferView": 2,
      "byteOffset": 2686152,
      "componentType": 5126,
      "count": 65532,
      "max": [
        1.0,
        1.0,
        1.0
      ],
      "min": [
        -1.0,
        -1.0,
        -1.0
      ],
      "type": "VEC3"
    },
    {
      "bufferView": 3,
      "byteOffset": 1266512,
      "componentType": 5126,
      "count": 65532,
      "max": [
        1.0,
        1.0,
        0.6688764095306396,
        1.0
      ],
      "min": [
        -1.0,
        -1.0,
        -0.6688764095306396,
        -1.0
      ],
      "type": "VEC4"
    },
    {
      "bufferView": 1,
      "byteOffset": 633256,
      "componentType": 5126,
      "count": 65532,
      "max": [
        1.0844529867172241,
        1.0454740524291992
      ],
      "min": [
        -0.07611700147390366,
        -0.12511999905109406
      ],
      "type": "VEC2"
    },
    {
      "bufferView": 0,
      "byteOffset": 510408,
      "componentType": 5125,
      "count": 139806,
      "type": "SCALAR"
    },
    {
      "bufferView": 2,
      "byteOffset": 3472536,
      "componentType": 5126,
      "count": 41382,
      "max": [
        2.012726068496704,
        21.174571990966797,
        12.467369079589844
      ],
      "min": [
        -2.023116111755371,
        -7.010790824890137,
        4.933287143707275
      ],
      "type": "VEC3"
    },
    {
      "bufferView": 2,
      "byteOffset": 3969120,
      "componentType": 5126,
      "count": 41382,
      "max": [
        1.0,
        1.0,
        1.0
      ],
      "min": [
        -1.0,
        -1.0,
        -1.0
      ],
      "type": "VEC3"
    },
    {
      "bufferView": 3,
      "byteOffset": 2315024,
      "componentType": 5126,
      "count": 41382,
      "max": [
        1.0,
        1.0,
        0.6688764095306396,
        1.0
      ],
      "min": [
        -1.0,
        -1.0,
        -0.6688764095306396,
        -1.0
      ],
      "type": "VEC4"
    },
    {
      "bufferView": 1,
      "byteOffset": 1157512,
      "componentType": 5126,
      "count": 41382,
      "max": [
        1.0844529867172241,
        1.0454740524291992
      ],
      "min": [
        -0.07611700147390366,
        -0.12511999905109406
      ],
      "type": "VEC2"
    },
    {
      "bufferView": 0,
      "byteOffset": 1069632,
      "componentType": 5125,
      "count": 88290,
      "type": "SCALAR"
    },
    {
      "bufferView": 2,
      "byteOffset": 4465704,
      "componentType": 5126,
      "count": 63257,
      "max": [
        2.861812114715576,
        22.32952880859375,
        14.338231086730957
      ],
      "min": [
        -2.8722031116485596,
        -8.165746688842773,
        0.029635999351739883
      ],
      "type": "VEC3"
    },
    {
      "bufferView": 2,
      "byteOffset": 5224788,
      "componentType": 5126,
      "count": 63257,
      "max": [
        1.0,
        1.0,
        1.0
      ],
      "min": [
        -1.0,
        -1.0,
        -1.0
      ],
      "type": "VEC3"
    },
    {
      "bufferView": 3,
      "byteOffset": 2977136,
      "componentType": 5126,
      "count": 63257,
      "max": [
        1.0,
        1.0,
        1.0,
        1.0
      ],
      "min": [
        -1.0,
        -1.0,
        -1.0,
        -1.0
      ],
      "type": "VEC4"
    },
    {
      "bufferView": 1,
      "byteOffset": 1488568,
      "componentType": 5126,
      "count": 63257,
      "max": [
        1.211899995803833,
        1.1343979835510254
      ],
      "min": [
        -0.5007429718971252,
        -0.32108598947525024
      ],
      "type": "VEC2"
    },
    {
      "bufferView": 0,
      "byteOffset": 1422792,
      "componentType": 5125,
      "count": 154872,
      "type": "SCALAR"
    }
  ],
  "asset": {
    "extras": {
      "author": "Anserkon (https://sketchfab.com/anserkon)",
      "license": "CC-BY-4.0 (http://creativecommons.org/licenses/by/4.0/)",
      "source": "https://sketchfab.com/3d-models/9-stored-apartment-house-d1015370af30486fbef32a574441b361",
      "title": "9-stored apartment house"
    },
    "generator": "Sketchfab-13.16.0",
    "version": "2.0"
  },
  "bufferViews": [
    {
      "buffer": 0,
      "byteLength": 2042280,
      "name": "floatBufferViews",
      "target": 34963
    },
    {
      "buffer": 0,
      "byteLength": 1994624,
      "byteOffset": 2042280,
      "byteStride": 8,
      "name": "floatBufferViews",
      "target": 34962
    },
    {
      "buffer": 0,
      "byteLength": 5983872,
      "byteOffset": 4036904,
      "byteStride": 12,
      "name": "floatBufferViews",
      "target": 34962
    },
    {
      "buffer": 0,
      "byteLength": 3989248,
      "byteOffset": 10020776,
      "byteStride": 16,
      "name": "floatBufferViews",
      "target": 34962
    }
  ],
  "buffers": [
    {
      "byteLength": 14010024,
      "uri": "scene.bin"
    }
  ],
  "images": [
    {
      "uri": "textures/Concrete_baseColor.jpeg"
    },
    {
      "uri": "textures/Concrete_metallicRoughness.png"
    },
    {
      "uri": "textures/Concrete_normal.png"
    },
    {
      "uri": "textures/Plastic_baseColor.jpeg"
    },
    {
      "uri": "textures/Plastic_metallicRoughness.png"
    },
    {
      "uri": "textures/Walls_baseColor.jpeg"
    }
  ],
  "materials": [
    {
      "doubleSided": true,
      "name": "Concrete",
      "normalTexture": {
        "index": 2
      },
      "pbrMetallicRoughness": {
        "baseColorTexture": {
          "index": 0
        },
        "metallicFactor": 0.0,
        "metallicRoughnessTexture": {
          "index": 1
        }
      }
    },
    {
      "doubleSided": true,
      "name": "Plastic",
      "normalTexture": {
        "index": 2
      },
      "pbrMetallicRoughness": {
        "baseColorTexture": {
          "index": 3
        },
        "metallicFactor": 0.0,
        "metallicRoughnessTexture": {
          "index": 4
        }
      }
    },
    {
      "doubleSided": true,
      "name": "Walls",
      "normalTexture": {
        "index": 2
      },
      "pbrMetallicRoughness": {
        "baseColorTexture": {
          "index": 5
        },
        "metallicFactor": 0.0,
        "metallicRoughnessTexture": {
          "index": 1
        }
      }
    }
  ],
  "meshes": [
    {
      "name": "Object_0",
      "primitives": [
        {
          "attributes": {
            "NORMAL": 1,
            "POSITION": 0,
            "TANGENT": 2,
            "TEXCOORD_0": 3
          },
          "indices": 4,
          "material": 0,
          "mode": 4
        }
      ]
    },
    {
      "name": "Object_1",
      "primitives": [
        {
          "attributes": {
            "NORMAL": 6,
            "POSITION": 5,
            "TANGENT": 7,
            "TEXCOORD_0": 8
          },
          "indices": 9,
          "material": 0,
          "mode": 4
        }
      ]
    },
    {
      "name": "Object_2",
      "primitives": [
        {
          "attributes": {
            "NORMAL": 11,
            "POSITION": 10,
            "TANGENT": 12,
            "TEXCOORD_0": 13
          },
          "indices": 14,
          "material": 0,
          "mode": 4
        }
      ]
    },
    {
      "name": "Object_3",
      "primitives": [
        {
          "attributes": {
            "NORMAL": 16,
            "POSITION": 15,
            "TANGENT": 17,
            "TEXCOORD_0": 18
          },
          "indices": 19,
          "material": 1,
          "mode": 4
        }
      ]
    },
    {
      "name": "Object_4",
      "primitives": [
        {
          "attributes": {
            "NORMAL": 21,
            "POSITION": 20,
            "TANGENT": 22,
            "TEXCOORD_0": 23
          },
          "indices": 24,
          "material": 1,
          "mode": 4
        }
      ]
    },
    {
      "name": "Object_5",
      "primitives": [
        {
          "attributes": {
            "NORMAL": 26,
            "POSITION": 25,
            "TANGENT": 27,
            "TEXCOORD_0": 28
          },
          "indices": 29,
          "material": 2,
          "mode": 4
        }
      ]
    }
  ],
  "nodes": [
    {
      "children": [
        1
      ],
      "matrix": [
        1.0,
        0.0,
        0.0,
        0.0,
        0.0,
        2.220446049250313e-16,
        -1.0,
        0.0,
        0.0,
        1.0,
        2.220446049250313e-16,
        0.0,
        0.0,
        0.0,
        0.0,
        1.0
      ],
      "name": "Sketchfab_model"
    },
    {
      "children": [
        2,
        3,
        4,
        5,
        6,
        7
      ],
      "name": "Apartment.obj.cleaner.materialmerger.gles"
    },
    {
      "mesh": 0,
      "name": "Object_2"
    },
    {
      "mesh": 1,
      "name": "Object_3"
    },
    {
      "mesh": 2,
      "name": "Object_4"
    },
    {
      "mesh": 3,
      "name": "Object_5"
    },
    {
      "mesh": 4,
      "name": "Object_6"
    },
    {
      "mesh": 5,
      "name": "Object_7"
    }
  ],
  "samplers": [
    {
      "magFilter": 9729,
      "minFilter": 9987,
      "wrapS": 10497,
      "wrapT": 10497
    }
  ],
  "scene": 0,
  "scenes": [
    {
      "name": "Sketchfab_Scene",
      "nodes": [
        0
      ]
    }
  ],
  "textures": [
    {
      "sampler": 0,
      "source": 0
    },
    {
      "sampler": 0,
      "source": 1
    },
    {
      "sampler": 0,
      "source": 2
    },
    {
      "sampler": 0,
      "source": 3
    },
    {
      "sampler": 0,
      "source": 4
    },
    {
      "sampler": 0,
      "source": 5
    }
  ]
}
