# Blender v3.0.1 OBJ File: ''
# www.blender.org
mtllib throttle.mtl
o Cube
v 0.100000 2.000000 -0.100000
v 0.100000 0.000000 -0.100000
v 0.100000 2.000000 0.100000
v 0.100000 0.000000 0.100000
v -0.100000 2.000000 -0.100000
v -0.100000 0.000000 -0.100000
v -0.100000 2.000000 0.100000
v -0.100000 0.000000 0.100000
v 0.000000 1.783989 0.314491
v 0.000000 1.784600 -0.315383
v 0.042082 1.788134 0.314499
v 0.042082 1.788745 -0.315375
v 0.082547 1.800408 0.314525
v 0.082547 1.801020 -0.315349
v 0.119840 1.820342 0.314566
v 0.119840 1.820953 -0.315308
v 0.152527 1.847168 0.314621
v 0.152527 1.847779 -0.315253
v 0.179353 1.879855 0.314689
v 0.179353 1.880466 -0.315185
v 0.199286 1.917148 0.314766
v 0.199286 1.917759 -0.315108
v 0.211561 1.957612 0.314850
v 0.211561 1.958224 -0.315024
v 0.215706 1.999694 0.314937
v 0.215706 2.000306 -0.314937
v 0.211561 2.041777 0.315024
v 0.211561 2.042388 -0.314850
v 0.199286 2.082241 0.315108
v 0.199286 2.082853 -0.314766
v 0.179353 2.119534 0.315185
v 0.179353 2.120145 -0.314689
v 0.152527 2.152221 0.315253
v 0.152527 2.152833 -0.314621
v 0.119840 2.179047 0.315308
v 0.119840 2.179658 -0.314566
v 0.082547 2.198980 0.315349
v 0.082547 2.199592 -0.314525
v 0.042082 2.211255 0.315375
v 0.042082 2.211867 -0.314499
v -0.000000 2.215400 0.315383
v -0.000000 2.216011 -0.314491
v -0.042082 2.211255 0.315375
v -0.042082 2.211867 -0.314499
v -0.082547 2.198980 0.315349
v -0.082547 2.199592 -0.314525
v -0.119840 2.179047 0.315308
v -0.119840 2.179658 -0.314566
v -0.152527 2.152221 0.315253
v -0.152527 2.152833 -0.314621
v -0.179353 2.119534 0.315185
v -0.179353 2.120145 -0.314689
v -0.199286 2.082241 0.315108
v -0.199286 2.082853 -0.314766
v -0.211561 2.041777 0.315024
v -0.211561 2.042388 -0.314850
v -0.215706 1.999694 0.314937
v -0.215706 2.000306 -0.314937
v -0.211561 1.957612 0.314850
v -0.211561 1.958224 -0.315024
v -0.199286 1.917148 0.314766
v -0.199286 1.917759 -0.315108
v -0.179353 1.879855 0.314689
v -0.179353 1.880466 -0.315185
v -0.152527 1.847168 0.314621
v -0.152527 1.847779 -0.315253
v -0.119840 1.820342 0.314566
v -0.119840 1.820953 -0.315308
v -0.082547 1.800408 0.314525
v -0.082547 1.801020 -0.315349
v -0.042082 1.788134 0.314499
v -0.042082 1.788745 -0.315375
vt 0.000000 0.000000
vt 1.000000 0.000000
vt 1.000000 1.000000
vt 0.000000 1.000000
vt 0.000000 0.000000
vt 1.000000 0.000000
vt 0.000000 1.000000
vt 0.000000 0.000000
vt 1.000000 0.000000
vt 1.000000 1.000000
vt 0.000000 1.000000
vt 0.000000 0.000000
vt 1.000000 0.000000
vt 1.000000 1.000000
vt 0.000000 0.000000
vt 1.000000 0.000000
vt 1.000000 1.000000
vt 0.000000 1.000000
vt 1.000000 1.000000
vt 0.000000 1.000000
vt 0.000000 0.000000
vt 1.000000 0.000000
vt 1.000000 1.000000
vt 0.000000 1.000000
vt 0.000000 0.000000
vt 1.000000 0.000000
vt 1.000000 1.000000
vt 0.000000 1.000000
vt 0.000000 0.000000
vt 1.000000 0.000000
vt 1.000000 1.000000
vt 0.000000 1.000000
vt 0.000000 0.000000
vt 1.000000 0.000000
vt 1.000000 1.000000
vt 0.000000 1.000000
vt 0.000000 0.000000
vt 1.000000 0.000000
vt 1.000000 1.000000
vt 0.000000 1.000000
vt 0.000000 0.000000
vt 1.000000 0.000000
vt 1.000000 1.000000
vt 0.000000 1.000000
vt 0.000000 0.000000
vt 1.000000 0.000000
vt 1.000000 1.000000
vt 0.000000 1.000000
vt 0.000000 0.000000
vt 1.000000 0.000000
vt 1.000000 1.000000
vt 0.000000 1.000000
vt 0.000000 0.000000
vt 1.000000 0.000000
vt 1.000000 1.000000
vt 0.000000 1.000000
vt 0.000000 0.000000
vt 1.000000 0.000000
vt 1.000000 1.000000
vt 0.000000 1.000000
vt 0.000000 0.000000
vt 1.000000 0.000000
vt 1.000000 1.000000
vt 0.000000 1.000000
vt 0.000000 0.000000
vt 1.000000 0.000000
vt 1.000000 1.000000
vt 0.000000 1.000000
vt 0.000000 0.000000
vt 1.000000 0.000000
vt 1.000000 1.000000
vt 0.000000 1.000000
vt 0.000000 0.000000
vt 1.000000 0.000000
vt 1.000000 1.000000
vt 0.000000 1.000000
vt 0.000000 0.000000
vt 1.000000 0.000000
vt 1.000000 1.000000
vt 0.000000 1.000000
vt 0.000000 0.000000
vt 1.000000 0.000000
vt 1.000000 1.000000
vt 0.000000 1.000000
vt 0.000000 0.000000
vt 1.000000 0.000000
vt 1.000000 1.000000
vt 0.000000 1.000000
vt 0.000000 0.000000
vt 1.000000 0.000000
vt 1.000000 1.000000
vt 0.000000 1.000000
vt 0.000000 0.000000
vt 1.000000 0.000000
vt 1.000000 1.000000
vt 0.000000 1.000000
vt 0.000000 0.000000
vt 1.000000 0.000000
vt 1.000000 1.000000
vt 0.000000 1.000000
vt 0.000000 0.000000
vt 1.000000 0.000000
vt 1.000000 1.000000
vt 0.000000 1.000000
vt 0.000000 0.000000
vt 1.000000 0.000000
vt 1.000000 1.000000
vt 0.000000 1.000000
vt 0.000000 0.000000
vt 1.000000 0.000000
vt 1.000000 1.000000
vt 0.000000 1.000000
vt 0.000000 0.000000
vt 1.000000 0.000000
vt 1.000000 1.000000
vt 0.000000 1.000000
vt 0.000000 0.000000
vt 1.000000 0.000000
vt 1.000000 1.000000
vt 0.000000 1.000000
vt 0.000000 0.000000
vt 1.000000 0.000000
vt 1.000000 1.000000
vt 0.000000 1.000000
vt 0.000000 0.000000
vt 1.000000 0.000000
vt 1.000000 1.000000
vt 0.000000 1.000000
vt 0.000000 0.000000
vt 1.000000 0.000000
vt 1.000000 1.000000
vt 0.000000 1.000000
vt 0.000000 0.000000
vt 1.000000 0.000000
vt 1.000000 1.000000
vt 0.000000 1.000000
vt 0.000000 0.000000
vt 1.000000 0.000000
vt 1.000000 1.000000
vt 0.000000 1.000000
vt 0.500000 1.000000
vt 0.597545 0.990393
vt 0.691342 0.961940
vt 0.777785 0.915735
vt 0.853553 0.853553
vt 0.915735 0.777785
vt 0.961940 0.691342
vt 0.990393 0.597545
vt 1.000000 0.500000
vt 0.990393 0.402455
vt 0.961940 0.308658
vt 0.915735 0.222215
vt 0.853553 0.146447
vt 0.777785 0.084265
vt 0.691342 0.038060
vt 0.597545 0.009607
vt 0.500000 0.000000
vt 0.402455 0.009607
vt 0.308658 0.038060
vt 0.222215 0.084265
vt 0.146446 0.146447
vt 0.084265 0.222215
vt 0.038060 0.308659
vt 0.009607 0.402455
vt 0.000000 0.500000
vt 0.009607 0.597546
vt 0.038060 0.691342
vt 0.084266 0.777786
vt 0.146447 0.853554
vt 0.222215 0.915735
vt 0.308659 0.961940
vt 0.402456 0.990393
vt 0.000000 0.000000
vt 1.000000 0.000000
vt 1.000000 1.000000
vt 0.000000 1.000000
vt 0.000000 0.000000
vt 1.000000 0.000000
vt 1.000000 1.000000
vt 0.000000 1.000000
vt 0.500000 1.000000
vt 0.597545 0.990393
vt 0.691342 0.961940
vt 0.777785 0.915735
vt 0.853553 0.853553
vt 0.915735 0.777785
vt 0.961940 0.691342
vt 0.990393 0.597545
vt 1.000000 0.500000
vt 0.990393 0.402455
vt 0.961940 0.308658
vt 0.915735 0.222215
vt 0.853553 0.146447
vt 0.777785 0.084265
vt 0.691342 0.038060
vt 0.597545 0.009607
vt 0.500000 0.000000
vt 0.402455 0.009607
vt 0.308658 0.038060
vt 0.222215 0.084265
vt 0.146446 0.146447
vt 0.084265 0.222215
vt 0.038060 0.308659
vt 0.009607 0.402455
vt 0.000000 0.500000
vt 0.009607 0.597546
vt 0.038060 0.691342
vt 0.084266 0.777786
vt 0.146447 0.853554
vt 0.222215 0.915735
vt 0.308659 0.961940
vt 0.402456 0.990393
vn 0.0000 1.0000 0.0000
vn 0.0000 0.0000 1.0000
vn -1.0000 0.0000 0.0000
vn 0.0000 -1.0000 0.0000
vn 1.0000 0.0000 0.0000
vn 0.0000 0.0000 -1.0000
vn 0.0980 -0.9952 -0.0010
vn 0.2903 -0.9569 -0.0009
vn 0.4714 -0.8819 -0.0009
vn 0.6344 -0.7730 -0.0008
vn 0.7730 -0.6344 -0.0006
vn 0.8819 -0.4714 -0.0005
vn 0.9569 -0.2903 -0.0003
vn 0.9952 -0.0980 -0.0001
vn 0.9952 0.0980 0.0001
vn 0.9569 0.2903 0.0003
vn 0.8819 0.4714 0.0005
vn 0.7730 0.6344 0.0006
vn 0.6344 0.7730 0.0008
vn 0.4714 0.8819 0.0009
vn 0.2903 0.9569 0.0009
vn 0.0980 0.9952 0.0010
vn -0.0980 0.9952 0.0010
vn -0.2903 0.9569 0.0009
vn -0.4714 0.8819 0.0009
vn -0.6344 0.7730 0.0008
vn -0.7730 0.6344 0.0006
vn -0.8819 0.4714 0.0005
vn -0.9569 0.2903 0.0003
vn -0.9952 0.0980 0.0001
vn -0.9952 -0.0980 -0.0001
vn -0.9569 -0.2903 -0.0003
vn -0.8819 -0.4714 -0.0005
vn -0.7730 -0.6344 -0.0006
vn -0.6344 -0.7730 -0.0008
vn -0.4714 -0.8819 -0.0009
vn 0.0000 0.0021 -1.0000
vn -0.2903 -0.9569 -0.0009
vn -0.0980 -0.9952 -0.0010
vn 0.0000 -0.0021 1.0000
usemtl Material
s off
f 1/1/1 5/2/1 7/3/1 3/4/1
f 4/5/2 3/6/2 7/3/2 8/7/2
f 8/8/3 7/9/3 5/10/3 6/11/3
f 6/12/4 2/13/4 4/14/4 8/7/4
f 2/15/5 1/16/5 3/17/5 4/18/5
f 6/12/6 5/2/6 1/19/6 2/20/6
f 9/21/7 10/22/7 12/23/7 11/24/7
f 11/25/8 12/26/8 14/27/8 13/28/8
f 13/29/9 14/30/9 16/31/9 15/32/9
f 15/33/10 16/34/10 18/35/10 17/36/10
f 17/37/11 18/38/11 20/39/11 19/40/11
f 19/41/12 20/42/12 22/43/12 21/44/12
f 21/45/13 22/46/13 24/47/13 23/48/13
f 23/49/14 24/50/14 26/51/14 25/52/14
f 25/53/15 26/54/15 28/55/15 27/56/15
f 27/57/16 28/58/16 30/59/16 29/60/16
f 29/61/17 30/62/17 32/63/17 31/64/17
f 31/65/18 32/66/18 34/67/18 33/68/18
f 33/69/19 34/70/19 36/71/19 35/72/19
f 35/73/20 36/74/20 38/75/20 37/76/20
f 37/77/21 38/78/21 40/79/21 39/80/21
f 39/81/22 40/82/22 42/83/22 41/84/22
f 41/85/23 42/86/23 44/87/23 43/88/23
f 43/89/24 44/90/24 46/91/24 45/92/24
f 45/93/25 46/94/25 48/95/25 47/96/25
f 47/97/26 48/98/26 50/99/26 49/100/26
f 49/101/27 50/102/27 52/103/27 51/104/27
f 51/105/28 52/106/28 54/107/28 53/108/28
f 53/109/29 54/110/29 56/111/29 55/112/29
f 55/113/30 56/114/30 58/115/30 57/116/30
f 57/117/31 58/118/31 60/119/31 59/120/31
f 59/121/32 60/122/32 62/123/32 61/124/32
f 61/125/33 62/126/33 64/127/33 63/128/33
f 63/129/34 64/130/34 66/131/34 65/132/34
f 65/133/35 66/134/35 68/135/35 67/136/35
f 67/137/36 68/138/36 70/139/36 69/140/36
f 12/141/37 10/142/37 72/143/37 70/144/37 68/145/37 66/146/37 64/147/37 62/148/37 60/149/37 58/150/37 56/151/37 54/152/37 52/153/37 50/154/37 48/155/37 46/156/37 44/157/37 42/158/37 40/159/37 38/160/37 36/161/37 34/162/37 32/163/37 30/164/37 28/165/37 26/166/37 24/167/37 22/168/37 20/169/37 18/170/37 16/171/37 14/172/37
f 69/173/38 70/174/38 72/175/38 71/176/38
f 71/177/39 72/178/39 10/179/39 9/180/39
f 9/181/40 11/182/40 13/183/40 15/184/40 17/185/40 19/186/40 21/187/40 23/188/40 25/189/40 27/190/40 29/191/40 31/192/40 33/193/40 35/194/40 37/195/40 39/196/40 41/197/40 43/198/40 45/199/40 47/200/40 49/201/40 51/202/40 53/203/40 55/204/40 57/205/40 59/206/40 61/207/40 63/208/40 65/209/40 67/210/40 69/211/40 71/212/40
